<?xml version="1.0" encoding="iso-8859-1"?>
<!-- Generator: Adobe Illustrator 19.0.0, SVG Export Plug-In . SVG Version: 6.00 Build 0)  -->
<svg version="1.1" id="Layer_1" xmlns="http://www.w3.org/2000/svg" xmlns:xlink="http://www.w3.org/1999/xlink" x="0px" y="0px"
	 viewBox="0 0 512 512" style="enable-background:new 0 0 512 512;" xml:space="preserve">
<path style="fill:#FFDA44;" d="M256,366.545c-60.955,0-110.545-49.591-110.545-110.545S195.045,145.455,256,145.455
	S366.545,195.045,366.545,256S316.955,366.545,256,366.545z"/>
<path style="fill:#FF9811;" d="M256,145.455c60.955,0,110.545,49.591,110.545,110.545S316.955,366.545,256,366.545"/>
<g>
	<rect x="238.545" style="fill:#FFDA44;" width="34.909" height="110.545"/>
	<polygon style="fill:#FFDA44;" points="74.981,74.981 62.639,87.323 140.806,165.49 153.147,153.148 165.49,140.806 87.323,62.639 
			"/>
	<rect y="238.545" style="fill:#FFDA44;" width="110.545" height="34.909"/>
	<polygon style="fill:#FFDA44;" points="140.806,346.51 62.639,424.677 87.323,449.361 165.49,371.194 153.147,358.851 	"/>
	<rect x="238.545" y="401.455" style="fill:#FFDA44;" width="34.909" height="110.545"/>
</g>
<g>
	<rect x="256" style="fill:#FF9811;" width="17.455" height="110.545"/>
	<rect x="256" y="401.455" style="fill:#FF9811;" width="17.455" height="110.545"/>
</g>
<g>
	<polygon style="fill:#FF9811;" points="358.853,358.851 346.51,371.194 424.677,449.361 449.361,424.677 371.194,346.51 	"/>
	<rect x="401.455" y="238.545" style="fill:#FF9811;" width="110.545" height="34.909"/>
</g>
<g>
	<polygon style="fill:#FF9811;" points="371.194,165.49 449.361,87.323 437.019,74.981 424.677,62.639 346.51,140.806 
		358.853,153.148 	"/>
</g>
<g>
</g>
<g>
</g>
<g>
</g>
<g>
</g>
<g>
</g>
<g>
</g>
<g>
</g>
<g>
</g>
<g>
</g>
<g>
</g>
<g>
</g>
<g>
</g>
<g>
</g>
<g>
</g>
<g>
</g>
</svg>
